<svg width="74" height="74" viewBox="0 0 74 74" fill="none" xmlns="http://www.w3.org/2000/svg">
    <path d="M0 36.73C0 56.91 16.36 73.26 36.53 73.26C56.7 73.26 73.06 56.9 73.06 36.73C73.06 16.56 56.71 0.200012 36.53 0.200012C16.35 0.200012 0 16.56 0 36.73Z" fill="url(#paint0_radial_2_2)"/>
    <path d="M54.89 31.31L42.76 19.18L41.31 27.15L33.34 19.18L27.8 31.33L15.65 19.18L9.92999 43.78L39.3 73.15C58.18 71.73 73.06 55.98 73.06 36.73C73.06 33.74 72.69 30.83 72.01 28.04L63.14 19.17L54.88 31.3L54.89 31.31Z" fill="#8A1002"/>
    <path d="M33.33 19.18V43.79H27.6L16.74 30.68V43.79H9.91V19.18H15.65L26.51 32.29V19.18H33.33Z" fill="white"/>
    <path d="M56.26 19.18L49.44 35.21L42.76 19.18H35.23L45.75 43.79H52.6L63.15 19.18H56.26Z" fill="white"/>
    <path d="M9.96001 53.96V47.88H11.12L14.71 52.26H14.15V47.88H15.54V53.96H14.39L10.8 49.58H11.36V53.96H9.97001H9.96001Z" fill="white"/>
    <path d="M18.43 52.83H21.74V53.96H17.03V47.88H21.62V49.01H18.43V52.83V52.83ZM18.33 50.33H21.26V51.42H18.33V50.33Z" fill="white"/>
    <path d="M24.36 53.96L22.37 47.88H23.83L25.56 53.26H24.83L26.64 47.88H27.94L29.68 53.26H28.98L30.75 47.88H32.1L30.11 53.96H28.6L27.06 49.24H27.46L25.88 53.96H24.37H24.36Z" fill="white"/>
    <path d="M37.14 53.96L34.52 47.88H36.04L38.33 53.26H37.44L39.77 47.88H41.17L38.54 53.96H37.15H37.14Z" fill="white"/>
    <path d="M44.57 54.06C44.09 54.06 43.65 53.98 43.24 53.83C42.83 53.67 42.48 53.45 42.18 53.17C41.88 52.89 41.65 52.55 41.49 52.17C41.32 51.79 41.24 51.37 41.24 50.92C41.24 50.47 41.32 50.05 41.49 49.67C41.66 49.29 41.89 48.96 42.19 48.67C42.49 48.39 42.84 48.17 43.25 48.01C43.65 47.85 44.09 47.78 44.57 47.78C45.05 47.78 45.49 47.86 45.89 48.01C46.29 48.17 46.64 48.39 46.94 48.67C47.24 48.95 47.47 49.28 47.64 49.66C47.81 50.04 47.89 50.46 47.89 50.91C47.89 51.36 47.81 51.78 47.64 52.16C47.47 52.55 47.24 52.88 46.94 53.16C46.64 53.44 46.29 53.66 45.89 53.82C45.49 53.98 45.05 54.05 44.57 54.05V54.06ZM44.57 52.86C44.84 52.86 45.09 52.81 45.32 52.72C45.55 52.63 45.75 52.49 45.92 52.32C46.09 52.15 46.23 51.94 46.32 51.7C46.42 51.46 46.46 51.2 46.46 50.91C46.46 50.62 46.41 50.36 46.32 50.12C46.22 49.88 46.09 49.68 45.92 49.5C45.75 49.33 45.55 49.19 45.32 49.1C45.09 49.01 44.84 48.96 44.56 48.96C44.28 48.96 44.04 49.01 43.81 49.1C43.58 49.19 43.38 49.33 43.21 49.5C43.04 49.67 42.9 49.88 42.81 50.12C42.71 50.36 42.67 50.62 42.67 50.91C42.67 51.2 42.72 51.46 42.81 51.7C42.91 51.94 43.04 52.15 43.21 52.32C43.38 52.49 43.58 52.63 43.81 52.72C44.04 52.81 44.29 52.86 44.57 52.86Z" fill="white"/>
    <path d="M49.02 53.96V47.88H50.43V53.96H49.02Z" fill="white"/>
    <path d="M54.84 54.06C54.37 54.06 53.94 53.98 53.53 53.83C53.12 53.68 52.78 53.46 52.48 53.17C52.18 52.89 51.95 52.55 51.79 52.17C51.63 51.79 51.54 51.37 51.54 50.91C51.54 50.45 51.62 50.03 51.79 49.65C51.96 49.27 52.19 48.94 52.48 48.65C52.78 48.37 53.13 48.15 53.53 47.99C53.93 47.83 54.37 47.76 54.84 47.76C55.37 47.76 55.84 47.85 56.27 48.03C56.7 48.21 57.05 48.48 57.34 48.83L56.44 49.66C56.23 49.42 56 49.24 55.75 49.13C55.5 49.02 55.22 48.95 54.92 48.95C54.64 48.95 54.38 49 54.14 49.09C53.9 49.18 53.7 49.32 53.52 49.49C53.35 49.66 53.21 49.87 53.12 50.11C53.02 50.35 52.98 50.61 52.98 50.9C52.98 51.19 53.03 51.45 53.12 51.69C53.22 51.93 53.35 52.13 53.52 52.31C53.69 52.48 53.9 52.62 54.14 52.71C54.38 52.8 54.64 52.85 54.92 52.85C55.22 52.85 55.5 52.79 55.75 52.67C56 52.55 56.24 52.37 56.44 52.13L57.34 52.96C57.05 53.31 56.69 53.58 56.27 53.77C55.84 53.96 55.37 54.05 54.83 54.05L54.84 54.06Z" fill="white"/>
    <path d="M59.71 52.83H63.02V53.96H58.31V47.88H62.9V49.01H59.71V52.83V52.83ZM59.61 50.33H62.54V51.42H59.61V50.33Z" fill="white"/>
    <defs>
        <radialGradient id="paint0_radial_2_2" cx="0" cy="0" r="1" gradientUnits="userSpaceOnUse" gradientTransform="translate(36.53 36.73) scale(36.53 36.53)">
            <stop stop-color="#E30613"/>
            <stop offset="0.56" stop-color="#E30613"/>
            <stop offset="0.67" stop-color="#DC0711"/>
            <stop offset="0.82" stop-color="#CB090F"/>
            <stop offset="0.99" stop-color="#AF0E0A"/>
            <stop offset="1" stop-color="#AE0F0A"/>
        </radialGradient>
    </defs>
</svg>